<?xml version="1.0" encoding="utf-8"?>
<!-- Generator: Adobe Illustrator 26.1.0, SVG Export Plug-In . SVG Version: 6.00 Build 0)  -->
<svg version="1.1" id="Layer_1" xmlns="http://www.w3.org/2000/svg" xmlns:xlink="http://www.w3.org/1999/xlink" x="0px" y="0px"
	 viewBox="0 0 30 30" style="enable-background:new 0 0 30 30;" xml:space="preserve">
<style type="text/css">
	.st0{fill:#FFFFFF;}
</style>
<path class="st0" d="M15,15.8c4.4,0,7.9-3.5,7.9-7.9S19.4,0,15,0S7.1,3.5,7.1,7.9S10.6,15.8,15,15.8z M15,1.8c3.4,0,6.2,2.8,6.2,6.2
	s-2.8,6.2-6.2,6.2s-6.2-2.8-6.2-6.2S11.6,1.8,15,1.8z M24.8,21c-2.2-2.2-5-3.4-8.1-3.4h-3.5c-3,0-5.9,1.2-8.1,3.4
	c-2.2,2.2-3.3,5.1-3.3,8.1c0,0.5,0.4,0.9,0.9,0.9h24.6c0.5,0,0.9-0.4,0.9-0.9C28.2,26.1,27,23.2,24.8,21z M3.6,28.2
	c0.4-5,4.6-8.9,9.6-8.9h3.5c5,0,9.2,3.9,9.6,8.9H3.6z"/>
</svg>
