<svg version="1.1" baseProfile="tiny" id="Capa_1" xmlns="http://www.w3.org/2000/svg" xmlns:xlink="http://www.w3.org/1999/xlink"
	 x="0px" y="0px" viewBox="-49 141 512 512" overflow="visible" xml:space="preserve">
	<path fill="#793162" d="M246.489,358.491l20.299-41.973c2.767-5.68,2.971-12.272,0.56-18.112
		c-2.295-5.678-6.939-10.084-12.73-12.077c-4.118-1.413-7.478-4.452-9.295-8.408c-1.816-4.008-1.917-8.584-0.281-12.669l4.024-10.207
		c5.434-13.124-0.145-28.22-12.809-34.655l-0.119-0.077c-4.922-2.353-10.8-1.273-14.564,2.676c-3.42,3.557-8.306,5.31-13.207,4.74
		c-4.88-0.479-9.25-3.228-11.795-7.419l-13.969-22.754c-1.347-2.217-2.995-4.237-4.896-6.001
		c-11.363-10.543-29.121-9.879-39.664,1.483c-9.779,10.342-10.709,26.217-2.203,37.63l11.271,14.84
		c1.392,1.849,2.371,3.974,2.871,6.234c1.928,8.717-3.575,17.348-12.293,19.276l-3.718,0.787c-9.72,2.241-15.88,11.825-13.88,21.598
		c1.497,7.552,7.711,13.267,15.362,14.127l5.657,0.642c6.412,0.617,11.77,5.144,13.448,11.363c1.902,6.259-0.206,13.045-5.319,17.126
		c-0.485,0.361-0.764,0.935-0.748,1.539c-0.035,0.548,0.172,1.083,0.566,1.465l34.771,32.151L246.489,358.491z M110.416,494.402
		c4.652,23.414,18.511,43.979,38.466,57.081L149,551.56c15.119,10.041,32.947,15.219,51.092,14.841
		c11.317-0.231,22.536,2.132,32.798,6.907c3.257,1.525,6.41,3.265,9.436,5.209c4.228,2.689,8.078,5.931,11.447,9.64
		c3.554-9.783,9.259-18.643,16.695-25.926c6.789-6.993,14.91-12.554,23.884-16.355c40.267-17.131,62.772-60.372,53.701-103.181
		c-4.676-23.315-18.493-43.787-38.365-56.846l-0.119-0.077c-19.776-12.94-43.931-17.369-67.011-12.287l-60.055,13.077
		C133.16,396.944,101.146,444.838,110.416,494.402z M33.911,251.435c-0.981,4.213-1.065,8.585-0.247,12.832
		c1.876,9.319,8.299,17.077,17.104,20.659l17.262,6.926c2.092,0.889,3.974,2.209,5.522,3.873c6.093,6.549,5.723,16.797-0.825,22.889
		l-2.874,2.602c-7.287,6.812-7.844,18.18-1.259,25.673c4.204,4.675,10.592,6.736,16.735,5.401c1.219-0.322,2.414-0.729,3.576-1.217
		l5.231-2.335c5.828-2.715,12.725-1.578,17.373,2.864c4.814,4.497,6.394,11.478,3.985,17.61c-0.145,0.343-0.154,0.729-0.027,1.079
		c0.075,0.697,0.587,1.268,1.271,1.418l40.409,8.567c3.416-1.49,6.891-2.942,10.467-4.159l-28.17-26.085
		c-3.395-3.198-5.26-7.697-5.122-12.359c0.171-4.693,2.377-9.08,6.043-12.015c0.672-0.508,0.939-1.39,0.662-2.185
		c-0.198-0.698-0.788-1.214-1.506-1.317l-5.695-0.583c-13.713-1.572-24.845-11.812-27.553-25.347
		c-3.579-17.334,7.405-34.335,24.677-38.198l3.757-0.847c0.639-0.136,1.162-0.596,1.379-1.212c0.28-0.63,0.164-1.366-0.296-1.88
		l-11.232-14.899c-1.196-1.573-2.252-3.248-3.156-5.006c-0.063,0.078-0.097,0.175-0.095,0.275
		c-1.479,5.974-6.243,10.577-12.264,11.85c-3.629,0.816-7.431,0.317-10.727-1.409l-23.484-12.407
		c-7.702-4.082-16.869-4.334-24.783-0.681C41.911,235.487,35.945,242.74,33.911,251.435z"/>
</svg>
